{
	"asset":{
		"generator":"Khronos glTF Blender I/O v5.0.21",
		"version":"2.0"
	},
	"extensionsUsed":[
		"KHR_lights_punctual"
	],
	"extensionsRequired":[
		"KHR_lights_punctual"
	],
	"extensions":{
		"KHR_lights_punctual":{
			"lights":[
				{
					"color":[
						1,
						1,
						1
					],
					"intensity":54351.41306588226,
					"type":"point",
					"name":"Light"
				}
			]
		}
	},
	"scene":0,
	"scenes":[
		{
			"name":"Scene",
			"nodes":[
				0,
				1,
				2,
				3,
				4,
				5
			]
		}
	],
	"nodes":[
		{
			"extensions":{
				"KHR_lights_punctual":{
					"light":0
				}
			},
			"name":"Light",
			"rotation":[
				-0.28416627645492554,
				0.7269423007965088,
				0.34203392267227173,
				0.5232754945755005
			],
			"translation":[
				4.076245307922363,
				5.903861999511719,
				-1.0054539442062378
			]
		},
		{
			"mesh":0,
			"name":"Mesh_0",
			"rotation":[
				-0.09091833978891373,
				-0.7056114673614502,
				-0.696682870388031,
				0.09208353608846664
			],
			"translation":[
				46.200286865234375,
				78.22026062011719,
				-43.135894775390625
			]
		},
		{
			"mesh":1,
			"name":"Apothiki_1",
			"rotation":[
				-0.09091833978891373,
				-0.7056114673614502,
				-0.696682870388031,
				0.09208353608846664
			],
			"translation":[
				46.200286865234375,
				78.22026062011719,
				-43.135894775390625
			]
		},
		{
			"mesh":2,
			"name":"Apothiki_2",
			"rotation":[
				-0.09091833978891373,
				-0.7056114673614502,
				-0.696682870388031,
				0.09208353608846664
			],
			"translation":[
				46.200286865234375,
				78.22026062011719,
				-43.135894775390625
			]
		},
		{
			"mesh":3,
			"name":"Apothiki_3",
			"rotation":[
				-0.09091833978891373,
				-0.7056114673614502,
				-0.696682870388031,
				0.09208353608846664
			],
			"translation":[
				46.200286865234375,
				78.22026062011719,
				-43.135894775390625
			]
		},
		{
			"mesh":4,
			"name":"Kaminada",
			"rotation":[
				-0.09091833978891373,
				-0.7056114673614502,
				-0.696682870388031,
				0.09208353608846664
			],
			"translation":[
				46.200286865234375,
				78.22026062011719,
				-43.135894775390625
			]
		}
	],
	"materials":[
		{
			"name":"Material_0",
			"pbrMetallicRoughness":{
				"baseColorTexture":{
					"index":0
				},
				"metallicFactor":0
			}
		}
	],
	"meshes":[
		{
			"name":"Mesh_0",
			"primitives":[
				{
					"attributes":{
						"POSITION":0,
						"NORMAL":1,
						"TEXCOORD_0":2,
						"COLOR_0":3
					},
					"indices":4,
					"material":0
				}
			]
		},
		{
			"name":"Mesh_0.001",
			"primitives":[
				{
					"attributes":{
						"POSITION":5,
						"NORMAL":6,
						"TEXCOORD_0":7,
						"COLOR_0":8
					},
					"indices":9,
					"material":0
				}
			]
		},
		{
			"name":"Mesh_0.002",
			"primitives":[
				{
					"attributes":{
						"POSITION":10,
						"NORMAL":11,
						"TEXCOORD_0":12,
						"COLOR_0":13
					},
					"indices":14,
					"material":0
				}
			]
		},
		{
			"name":"Mesh_0.003",
			"primitives":[
				{
					"attributes":{
						"POSITION":15,
						"NORMAL":16,
						"TEXCOORD_0":17,
						"COLOR_0":18
					},
					"indices":19,
					"material":0
				}
			]
		},
		{
			"name":"Mesh_0.004",
			"primitives":[
				{
					"attributes":{
						"POSITION":20,
						"NORMAL":21,
						"TEXCOORD_0":22,
						"COLOR_0":23
					},
					"indices":24,
					"material":0
				}
			]
		}
	],
	"textures":[
		{
			"sampler":0,
			"source":0
		}
	],
	"images":[
		{
			"mimeType":"image/jpeg",
			"name":"Image_0",
			"uri":"Image_0.jpg"
		}
	],
	"accessors":[
		{
			"bufferView":0,
			"componentType":5126,
			"count":511662,
			"max":[
				337.0001220703125,
				300.593994140625,
				35.31280517578125
			],
			"min":[
				-344.59002685546875,
				-241.38343811035156,
				-82.79483032226562
			],
			"type":"VEC3"
		},
		{
			"bufferView":1,
			"componentType":5126,
			"count":511662,
			"type":"VEC3"
		},
		{
			"bufferView":2,
			"componentType":5126,
			"count":511662,
			"type":"VEC2"
		},
		{
			"bufferView":3,
			"componentType":5126,
			"count":511662,
			"type":"VEC3"
		},
		{
			"bufferView":4,
			"componentType":5125,
			"count":2683050,
			"type":"SCALAR"
		},
		{
			"bufferView":5,
			"componentType":5126,
			"count":487,
			"max":[
				-159.332275390625,
				123.45445251464844,
				-42.067230224609375
			],
			"min":[
				-176.9122772216797,
				108.67709350585938,
				-45.73101806640625
			],
			"type":"VEC3"
		},
		{
			"bufferView":6,
			"componentType":5126,
			"count":487,
			"type":"VEC3"
		},
		{
			"bufferView":7,
			"componentType":5126,
			"count":487,
			"type":"VEC2"
		},
		{
			"bufferView":8,
			"componentType":5126,
			"count":487,
			"type":"VEC3"
		},
		{
			"bufferView":9,
			"componentType":5123,
			"count":2157,
			"type":"SCALAR"
		},
		{
			"bufferView":10,
			"componentType":5126,
			"count":1251,
			"max":[
				-131.09024047851562,
				69.24523162841797,
				-39.665252685546875
			],
			"min":[
				-152.00958251953125,
				45.37933349609375,
				-46.611083984375
			],
			"type":"VEC3"
		},
		{
			"bufferView":11,
			"componentType":5126,
			"count":1251,
			"type":"VEC3"
		},
		{
			"bufferView":12,
			"componentType":5126,
			"count":1251,
			"type":"VEC2"
		},
		{
			"bufferView":13,
			"componentType":5126,
			"count":1251,
			"type":"VEC3"
		},
		{
			"bufferView":14,
			"componentType":5123,
			"count":6024,
			"type":"SCALAR"
		},
		{
			"bufferView":15,
			"componentType":5126,
			"count":452,
			"max":[
				-191.49615478515625,
				51.93511199951172,
				-41.435638427734375
			],
			"min":[
				-202.07713317871094,
				34.676353454589844,
				-47.049713134765625
			],
			"type":"VEC3"
		},
		{
			"bufferView":16,
			"componentType":5126,
			"count":452,
			"type":"VEC3"
		},
		{
			"bufferView":17,
			"componentType":5126,
			"count":452,
			"type":"VEC2"
		},
		{
			"bufferView":18,
			"componentType":5126,
			"count":452,
			"type":"VEC3"
		},
		{
			"bufferView":19,
			"componentType":5123,
			"count":1995,
			"type":"SCALAR"
		},
		{
			"bufferView":20,
			"componentType":5126,
			"count":1538,
			"max":[
				-93.2098159790039,
				198.14358520507812,
				-17.20208740234375
			],
			"min":[
				-112.20699310302734,
				179.6842803955078,
				-41.9595947265625
			],
			"type":"VEC3"
		},
		{
			"bufferView":21,
			"componentType":5126,
			"count":1538,
			"type":"VEC3"
		},
		{
			"bufferView":22,
			"componentType":5126,
			"count":1538,
			"type":"VEC2"
		},
		{
			"bufferView":23,
			"componentType":5126,
			"count":1538,
			"type":"VEC3"
		},
		{
			"bufferView":24,
			"componentType":5123,
			"count":6771,
			"type":"SCALAR"
		}
	],
	"bufferViews":[
		{
			"buffer":0,
			"byteLength":6139944,
			"byteOffset":0,
			"target":34962
		},
		{
			"buffer":0,
			"byteLength":6139944,
			"byteOffset":6139944,
			"target":34962
		},
		{
			"buffer":0,
			"byteLength":4093296,
			"byteOffset":12279888,
			"target":34962
		},
		{
			"buffer":0,
			"byteLength":6139944,
			"byteOffset":16373184,
			"target":34962
		},
		{
			"buffer":0,
			"byteLength":10732200,
			"byteOffset":22513128,
			"target":34963
		},
		{
			"buffer":0,
			"byteLength":5844,
			"byteOffset":33245328,
			"target":34962
		},
		{
			"buffer":0,
			"byteLength":5844,
			"byteOffset":33251172,
			"target":34962
		},
		{
			"buffer":0,
			"byteLength":3896,
			"byteOffset":33257016,
			"target":34962
		},
		{
			"buffer":0,
			"byteLength":5844,
			"byteOffset":33260912,
			"target":34962
		},
		{
			"buffer":0,
			"byteLength":4314,
			"byteOffset":33266756,
			"target":34963
		},
		{
			"buffer":0,
			"byteLength":15012,
			"byteOffset":33271072,
			"target":34962
		},
		{
			"buffer":0,
			"byteLength":15012,
			"byteOffset":33286084,
			"target":34962
		},
		{
			"buffer":0,
			"byteLength":10008,
			"byteOffset":33301096,
			"target":34962
		},
		{
			"buffer":0,
			"byteLength":15012,
			"byteOffset":33311104,
			"target":34962
		},
		{
			"buffer":0,
			"byteLength":12048,
			"byteOffset":33326116,
			"target":34963
		},
		{
			"buffer":0,
			"byteLength":5424,
			"byteOffset":33338164,
			"target":34962
		},
		{
			"buffer":0,
			"byteLength":5424,
			"byteOffset":33343588,
			"target":34962
		},
		{
			"buffer":0,
			"byteLength":3616,
			"byteOffset":33349012,
			"target":34962
		},
		{
			"buffer":0,
			"byteLength":5424,
			"byteOffset":33352628,
			"target":34962
		},
		{
			"buffer":0,
			"byteLength":3990,
			"byteOffset":33358052,
			"target":34963
		},
		{
			"buffer":0,
			"byteLength":18456,
			"byteOffset":33362044,
			"target":34962
		},
		{
			"buffer":0,
			"byteLength":18456,
			"byteOffset":33380500,
			"target":34962
		},
		{
			"buffer":0,
			"byteLength":12304,
			"byteOffset":33398956,
			"target":34962
		},
		{
			"buffer":0,
			"byteLength":18456,
			"byteOffset":33411260,
			"target":34962
		},
		{
			"buffer":0,
			"byteLength":13542,
			"byteOffset":33429716,
			"target":34963
		}
	],
	"samplers":[
		{
			"magFilter":9729,
			"minFilter":9987
		}
	],
	"buffers":[
		{
			"byteLength":33443260,
			"uri":"lato.bin"
		}
	]
}
